<svg xmlns="http://www.w3.org/2000/svg" version="1.1" xmlns:xlink="http://www.w3.org/1999/xlink" width="512" height="512" x="0" y="0" viewBox="0 0 1.707 1.707" style="enable-background:new 0 0 512 512" xml:space="preserve" fill-rule="evenodd" class="" transform="matrix(-1,0,0,1,0,0)"><g transform="matrix(1,0,0,1,1.1102230246251565e-16,5.551115123125783e-16)"><path fill="#676767" d="M.157.691A.824.824 0 0 1 .67.523c.188 0 .381.057.576.168h-.065A1.155 1.155 0 0 0 .663.558a.904.904 0 0 0-.296.05L.405.69.261.71.157.69z" opacity="1" data-original="#7c7d7d" class=""></path><path fill="#edfbff" d="M.4.696h.796A1.177 1.177 0 0 0 .66.558a.918.918 0 0 0-.3.05L.4.696z" opacity="1" data-original="#46daff" class=""></path><path fill="#676767" d="M.738.706.712.548A.02.02 0 0 1 .73.525.02.02 0 0 1 .75.542l.027.164h-.04z" opacity="1" data-original="#7c7d7d" class=""></path><path fill="#1c1c1c" d="M.162 1.057c-.098 0-.156-.037-.158-.102C-.004.867.004.859.01.853A.023.023 0 0 1 .024.846h.013V.711a.02.02 0 0 1 .02-.02H1.247c.04.002.297.02.45.115a.02.02 0 0 1 .01.017v.213a.02.02 0 0 1-.02.02h-.211a.02.02 0 0 1-.02-.02v-.003a.131.131 0 0 0-.263 0v.003a.02.02 0 0 1-.02.02h-.64a.02.02 0 0 1-.02-.02v-.003a.131.131 0 0 0-.262 0v.002a.02.02 0 0 1-.006.015.02.02 0 0 1-.014.006H.193a.317.317 0 0 1-.03.001z" opacity="1" data-original="#919191" class=""></path><g fill="#7c7d7d"><path d="M1.5 1.056h-.024a.02.02 0 0 1-.02-.02v-.003a.131.131 0 0 0-.263 0v.003a.02.02 0 0 1-.02.02H1.15a.178.178 0 0 1 .175-.2.177.177 0 0 1 .176.2zM.558 1.056H.534a.02.02 0 0 1-.02-.02v-.003a.131.131 0 0 0-.263 0v.002a.02.02 0 0 1-.006.015.02.02 0 0 1-.014.006H.207a.178.178 0 0 1 .175-.2.177.177 0 0 1 .176.2zM1.706.933v.04h-.111a.02.02 0 0 1 0-.04h.111z" fill="#676767" opacity="1" data-original="#7c7d7d" class=""></path></g><path fill="#efefef" d="M1.388.707a.87.87 0 0 1 .309.099.02.02 0 0 1 .01.017v.003a.474.474 0 0 1-.09.008c-.12 0-.212-.048-.228-.12a.02.02 0 0 1 0-.007z" opacity="1" data-original="#ffcc66" class=""></path><path fill="#676767" d="M.735.691h.04v.233h.276a.02.02 0 0 1 0 .04H.755a.02.02 0 0 1-.02-.02V.69z" opacity="1" data-original="#7c7d7d" class=""></path><path fill="#ff4646" d="M.098.846H.037a.02.02 0 0 1-.02-.02V.753a.02.02 0 0 1 .02-.02h.081c.018 0 .071 0 .073.037C.193.808.12.844.101.846H.097z" opacity="1" data-original="#ff4646" class=""></path><path fill="#edebf2" d="M.342.82H.285A.027.027 0 0 1 .258.793V.75C.258.735.27.723.285.723h.057C.357.723.37.735.37.75v.043A.027.027 0 0 1 .342.82z" opacity="1" data-original="#edebf2" class=""></path><path fill="#414141" d="M1.324 1.184a.15.15 0 1 1 0-.301.15.15 0 0 1 0 .3z" opacity="1" data-original="#425b72" class=""></path><path fill="#bdc0c2" d="M1.324 1.116a.083.083 0 1 1 0-.166.083.083 0 0 1 0 .166z" opacity="1" data-original="#bdc0c2" class=""></path><path fill="#414141" d="M1.324 1.076a.043.043 0 1 1 0-.085.043.043 0 0 1 0 .085zM.382 1.184a.15.15 0 1 1 0-.301.15.15 0 0 1 0 .3z" opacity="1" data-original="#425b72" class=""></path><path fill="#bdc0c2" d="M.382 1.116a.083.083 0 1 1 0-.166.083.083 0 0 1 0 .166z" opacity="1" data-original="#bdc0c2" class=""></path><path fill="#414141" d="M.382 1.076a.043.043 0 1 1 0-.085.043.043 0 0 1 0 .085z" opacity="1" data-original="#425b72" class=""></path></g></svg>