
<svg xmlns="http://www.w3.org/2000/svg" version="1.1" xmlns:xlink="http://www.w3.org/1999/xlink" width="512" height="512" x="0" y="0" viewBox="0 0 48 48" style="enable-background:new 0 0 512 512" xml:space="preserve" class=""><g><path fill="#edcd8e" d="M39 9H22c-5.281.166-5.289 7.832 0 8h17c5.281-.166 5.289-7.832 0-8z" opacity="1" data-original="#edcd8e" class=""></path><path fill="#7ab0ba" d="m45.97 23.757-1.242-4.969a4.993 4.993 0 0 0-4.851-3.787L20.472 15A4.97 4.97 0 0 0 16 17.764l-2.645 5.291-6.808.618A4.976 4.976 0 0 0 2 28.652V34a1 1 0 0 0 1 1h42a1 1 0 0 0 1-1V24a.998.998 0 0 0-.03-.243z" opacity="1" data-original="#7ab0ba" class=""></path><g fill="#723d28"><path d="M11 29c-6.608.21-6.606 9.791 0 10 6.608-.21 6.606-9.791 0-10zM37 29c-6.608.21-6.606 9.791 0 10 6.608-.21 6.606-9.791 0-10z" fill="#723d28" opacity="1" data-original="#723d28"></path></g><path fill="#efefef" d="M40.98 18.804A.998.998 0 0 0 40 18H20c-.409 0-.776.249-.929.628l-2 5c-.27.629.242 1.392.929 1.372h23a.998.998 0 0 0 .98-1.196z" opacity="1" data-original="#efefef" class=""></path><path d="M3 35h3.101c1.1 5.278 8.699 5.281 9.798 0h16.202c1.088 5.272 8.706 5.282 9.798 0H45a1 1 0 0 0 1-1s.021-10.059 0-10.139l-1.272-5.073a4.979 4.979 0 0 0-2.65-3.264A3.964 3.964 0 0 0 43 13c0-2.206-1.794-4-4-4H22c-3.17-.096-5.162 3.82-3.25 6.315a4.96 4.96 0 0 0-2.75 2.45l-2.645 5.291-6.808.618A4.974 4.974 0 0 0 2 28.652V34a1 1 0 0 0 1 1zm8 2c-3.956-.104-3.955-5.897 0-6 3.956.104 3.955 5.897 0 6zm26 0c-3.956-.104-3.955-5.897 0-6 3.956.104 3.955 5.897 0 6zM22 11h17c2.623.045 2.632 3.953 0 4H22c-2.623-.045-2.632-3.953 0-4zM4 28.652a2.985 2.985 0 0 1 2.729-2.988l7.362-.668c.345-.032.649-.239.804-.549l2.895-5.789A2.98 2.98 0 0 1 20.472 17l19.405.001c1.379 0 2.576.935 2.911 2.272L44 24.123V33h-2.101c-.465-2.279-2.484-4-4.899-4s-4.434 1.721-4.899 4H15.899c-.465-2.279-2.484-4-4.899-4s-4.434 1.721-4.899 4H4z" fill="#000000" opacity="1" data-original="#000000" class=""></path><path d="M18 25h23c.611.015 1.116-.598.98-1.196l-1-5A.998.998 0 0 0 40 18H20c-.409 0-.776.249-.929.628l-2 5c-.27.629.242 1.392.929 1.372zm2.677-5H39.18l.6 3H19.477z" fill="#000000" opacity="1" data-original="#000000" class=""></path></g></svg>