<svg xmlns="http://www.w3.org/2000/svg" version="1.1" xmlns:xlink="http://www.w3.org/1999/xlink" width="512" height="512" x="0" y="0" viewBox="0 0 512 512" style="enable-background:new 0 0 512 512" xml:space="preserve" class=""><g transform="matrix(0.8800000000000001,0,0,0.8800000000000001,30.719937744140594,32.00231781005857)"><path fill="#9c9696" d="M508 343.28v22.08c0 4.88-3.96 8.84-8.84 8.84h-37.68c.04-.48.04-.92.04-1.4 0-15.84-7.8-29.84-19.76-38.36h57.4c4.88 0 8.84 3.96 8.84 8.84z" opacity="1" data-original="#969696" class=""></path><path fill="#ff1b1b" d="M188 131.96h-77.16c-7.56 0-13.32 6.8-12.12 14.32 3.16 20.16 12 40.8 19.24 55.08 5.76 11.48 17.56 18.6 30.4 18.6h43.32l4.32 17.2v97.28h-80l-.04.04c-7.72-5.6-17.24-8.88-27.48-8.88s-19.76 3.28-27.48 8.84H17.28v-37.36c0-2.4.16-4.76.48-7.12l20.8-10.4a33.472 33.472 0 0 0 17.6-22.36l6.36-27.52c1.72-7.48-3.96-14.64-11.68-14.64h-7.12c.08-.8.08-1.6.08-2.4v-66.48c0-9.44 4.72-18.24 12.56-23.48l6.84-4.56c4.64-3.08 10.08-4.76 15.64-4.76H221.8c50.44 0 99 18.96 136.12 53.08l43.92 40.44c5.88 5.4 12.6 9.84 19.92 13.12l56.56 25.48c6.88 3.08 12.4 8.2 16 14.48H461.4c-7.68 0-12.56 8.44-8.52 14.96 5.8 9.36 18.48 19.84 46.28 20.92v38.6h-57.4c-7.72-5.56-17.2-8.84-27.44-8.84s-19.76 3.28-27.48 8.88l-.04-.04H376v-94.48l-8-20h3.36c4.68 0 7.04-5.6 3.84-8.96-75.16-79.04-132.48-79.04-132.48-79.04h-44.2z" opacity="1" data-original="#eaeaea" class=""></path><path fill="#ffffff" d="M499.16 277.72v18.12c-27.8-1.08-40.48-11.56-46.28-20.92-4.04-6.52.84-14.96 8.52-14.96h32.92c3.12 5.28 4.84 11.4 4.84 17.76z" opacity="1" data-original="#ed3b48" class=""></path><path fill="#e0d9d9" d="M367.12 374.2c-.04-.48-.04-.92-.04-1.4 0-15.84 7.8-29.8 19.76-38.32 7.72-5.6 17.24-8.88 27.48-8.88s19.72 3.28 27.44 8.84c11.96 8.52 19.76 22.52 19.76 38.36 0 .48 0 .92-.04 1.4-.72 25.44-21.6 45.8-47.16 45.8-25.6 0-46.48-20.36-47.2-45.8zm70.8-1.4c0-13.04-10.6-23.6-23.6-23.6-13.04 0-23.64 10.56-23.64 23.6s10.6 23.6 23.64 23.6c13 0 23.6-10.56 23.6-23.6z" opacity="1" data-original="#545050" class=""></path><path fill="#9c9696" d="M414.32 349.2c13 0 23.6 10.56 23.6 23.6s-10.6 23.6-23.6 23.6c-13.04 0-23.64-10.56-23.64-23.6s10.6-23.6 23.64-23.6zm10.52 23.6-5.28-9.16h-10.52l-5.28 9.16 5.28 9.12h10.52z" opacity="1" data-original="#969696" class=""></path><path fill="#e0d9d9" d="m419.56 363.64 5.28 9.16-5.28 9.12h-10.52l-5.28-9.12 5.28-9.16z" opacity="1" data-original="#545050" class=""></path><path fill="#9c9696" d="M196 334.44h190.8l.04.04c-11.96 8.52-19.76 22.48-19.76 38.32 0 .48 0 .92.04 1.4H135.64c.04-.48.04-.92.04-1.4 0-15.84-7.76-29.8-19.72-38.32l.04-.04z" opacity="1" data-original="#969696" class=""></path><path fill="#ff1b1b" d="M376 334.4v.04H196v-97.28l-4.32-17.2H368l8 20zm-124-85.56v-4.88h-36v4.88c0 3.96 3.2 7.12 7.12 7.12h21.76a7.11 7.11 0 0 0 7.12-7.12z" opacity="1" data-original="#eaeaea" class=""></path><path fill="#e0d9d9" d="M375.2 211c3.2 3.36.84 8.96-3.84 8.96H198.52v-88h44.2s57.32 0 132.48 79.04zM252 243.96v4.88c0 3.96-3.2 7.12-7.12 7.12h-21.76a7.11 7.11 0 0 1-7.12-7.12v-4.88z" opacity="1" data-original="#545050" class=""></path><path fill="#9c9696" d="M191.68 219.96H188v-88h10.52v88h-6.84z" opacity="1" data-original="#969696" class=""></path><path fill="#e0d9d9" d="M188 219.48v.48h-39.64c-12.84 0-24.64-7.12-30.4-18.6-7.24-14.28-16.08-34.92-19.24-55.08-1.2-7.52 4.56-14.32 12.12-14.32H188zM135.68 372.8c0 .48 0 .92-.04 1.4-.72 25.44-21.56 45.8-47.16 45.8s-46.44-20.36-47.16-45.8c-.04-.48-.04-.92-.04-1.4 0-15.84 7.76-29.8 19.72-38.36 7.72-5.56 17.24-8.84 27.48-8.84s19.76 3.28 27.48 8.88c11.96 8.52 19.72 22.48 19.72 38.32zm-23.6 0c0-13.04-10.56-23.6-23.6-23.6s-23.6 10.56-23.6 23.6 10.56 23.6 23.6 23.6 23.6-10.56 23.6-23.6z" opacity="1" data-original="#545050" class=""></path><path fill="#9c9696" d="M88.48 349.2c13.04 0 23.6 10.56 23.6 23.6s-10.56 23.6-23.6 23.6-23.6-10.56-23.6-23.6 10.56-23.6 23.6-23.6zm10.56 23.6-5.28-9.16H83.2l-5.28 9.16 5.28 9.12h10.56z" opacity="1" data-original="#969696" class=""></path><path fill="#e0d9d9" d="m93.76 363.64 5.28 9.16-5.28 9.12H83.2l-5.28-9.12 5.28-9.16z" opacity="1" data-original="#545050" class=""></path><path fill="#ffffff" d="M50.84 215.04c7.72 0 13.4 7.16 11.68 14.64l-6.36 27.52a33.472 33.472 0 0 1-17.6 22.36l-20.8 10.4c.64-5 1.96-9.88 3.96-14.52l17.64-41.16c2.6-6.12 4.08-12.64 4.36-19.24h.08z" opacity="1" data-original="#ed3b48" class=""></path><path fill="#9c9696" d="M17.28 334.44H61C49.04 343 41.28 356.96 41.28 372.8c0 .48 0 .92.04 1.4H12.84c-4.88 0-8.84-3.96-8.84-8.84v-22.08c0-4.88 3.96-8.84 8.84-8.84zM229.947 172h-15.894a2.053 2.053 0 0 1-2.053-2.053v-19.894c0-1.134.919-2.053 2.053-2.053h15.894c1.134 0 2.053.919 2.053 2.053v19.894a2.053 2.053 0 0 1-2.053 2.053z" opacity="1" data-original="#969696" class=""></path><g fill="#271035"><path d="M414.301 345.188c-15.223 0-27.605 12.383-27.605 27.605 0 15.221 12.383 27.604 27.605 27.604s27.605-12.383 27.605-27.604c0-15.223-12.383-27.605-27.605-27.605zm0 47.208c-10.809 0-19.605-8.795-19.605-19.604 0-10.811 8.797-19.605 19.605-19.605s19.605 8.795 19.605 19.605-8.797 19.604-19.605 19.604z" fill="#271035" opacity="1" data-original="#271035" class=""></path><path d="M419.578 359.65h-10.555a4 4 0 0 0-3.465 2l-5.277 9.143a3.998 3.998 0 0 0 0 4l5.277 9.141a4 4 0 0 0 3.465 2h10.555a4 4 0 0 0 3.465-2l5.277-9.141a3.998 3.998 0 0 0 0-4l-5.277-9.143a4 4 0 0 0-3.465-2zm-2.308 18.284h-5.938l-2.969-5.141 2.969-5.143h5.938l2.969 5.143zM88.492 345.188c-15.223 0-27.605 12.383-27.605 27.605 0 15.221 12.383 27.604 27.605 27.604s27.605-12.383 27.605-27.604c.001-15.223-12.382-27.605-27.605-27.605zm0 47.208c-10.809 0-19.605-8.795-19.605-19.604 0-10.811 8.797-19.605 19.605-19.605s19.605 8.795 19.605 19.605c.001 10.81-8.796 19.604-19.605 19.604z" fill="#271035" opacity="1" data-original="#271035" class=""></path><path d="M93.77 359.65H83.215a4 4 0 0 0-3.465 2l-5.277 9.143a3.998 3.998 0 0 0 0 4l5.277 9.141a4 4 0 0 0 3.465 2H93.77a4 4 0 0 0 3.465-2l5.277-9.141a3.998 3.998 0 0 0 0-4l-5.277-9.143a4.001 4.001 0 0 0-3.465-2zm-2.309 18.284h-5.938l-2.969-5.141 2.969-5.143h5.938l2.969 5.143z" fill="#271035" opacity="1" data-original="#271035" class=""></path><path d="M503.156 331.127v-53.411c0-15.465-9.109-29.557-23.211-35.902l-56.547-25.445a70.618 70.618 0 0 1-18.848-12.436l-43.934-40.42c-37.949-34.914-87.246-54.141-138.809-54.141H78.859a32.12 32.12 0 0 0-17.871 5.412l-6.852 4.568a32.146 32.146 0 0 0-14.348 26.805v66.469a50.68 50.68 0 0 1-4.117 20.059l-17.645 41.172a58.561 58.561 0 0 0-4.766 23.211v33.357h-.418C5.762 330.426 0 336.188 0 343.268v22.105c0 7.082 5.762 12.844 12.844 12.844H37.58C40.299 403.912 62.09 424 88.492 424s48.193-20.088 50.912-45.783h223.984C366.107 403.912 387.898 424 414.3 424s48.193-20.088 50.912-45.783h33.943c7.082 0 12.844-5.762 12.844-12.844v-22.105c.001-5.676-3.726-10.448-8.843-12.141zm-8-39.584c-18.72-1.498-32.16-7.89-38.883-18.734-1.57-2.535-.594-4.867-.102-5.752 1.074-1.93 3.023-3.082 5.215-3.082h30.545c2.058 4.209 3.224 8.881 3.224 13.742v13.826zM43.023 235.838a58.535 58.535 0 0 0 4.397-16.783h3.42a7.951 7.951 0 0 1 6.25 3.006 7.904 7.904 0 0 1 1.531 6.734l-6.359 27.52c-1.977 8.559-7.629 15.734-15.492 19.682L23.366 282.7c.567-1.923 1.215-3.826 2.013-5.689zm-21.761 61.23c0-1.506.095-2.998.225-4.484l18.865-9.436c10.008-5.021 17.188-14.146 19.707-25.033l6.359-27.523a15.873 15.873 0 0 0-3.07-13.514 15.899 15.899 0 0 0-12.508-6.023h-3.051v-64.896a24.161 24.161 0 0 1 10.785-20.148l6.852-4.568a24.146 24.146 0 0 1 13.434-4.068h142.949c49.551 0 96.926 18.477 133.395 52.027l43.934 40.42a78.554 78.554 0 0 0 20.98 13.846l56.547 25.445c3.696 1.663 6.908 4.044 9.626 6.863h-24.903a13.986 13.986 0 0 0-12.203 7.189c-2.457 4.416-2.348 9.596.293 13.859 5.783 9.335 18.416 20.584 45.68 22.586v30.816h-52.133c-8.197-5.575-18.084-8.842-28.722-8.842s-20.525 3.267-28.722 8.842H380v-90.451c0-.51-.098-1.014-.285-1.486l-5.943-14.858a9.117 9.117 0 0 0 6.139-5.284c1.496-3.488.805-7.363-1.809-10.113-75.473-79.346-132.977-80.258-135.387-80.258H110.859a16.26 16.26 0 0 0-12.375 5.699 16.409 16.409 0 0 0-3.738 13.221v.002c3.277 20.85 12.488 42.109 19.641 56.271 6.477 12.834 19.5 20.807 33.984 20.807h40.209l3.42 13.682v92.77h-34.382C144.2 304.747 120.78 287.682 92.953 283.5c-2.172-.33-4.219 1.18-4.551 3.361a4.002 4.002 0 0 0 3.363 4.549c23.901 3.593 44.244 17.696 56.724 39.016h-31.275c-8.197-5.575-18.084-8.842-28.722-8.842s-20.525 3.267-28.722 8.842H21.262zm105.081 41.358H376.45c-7.724 8.5-12.613 19.577-13.225 31.791H139.569c-.613-12.214-5.501-23.291-13.226-31.791zm73.536-102.233-3.055-12.219h168.467l6.709 16.77v89.682H200v-93.262c0-.326-.039-.652-.121-.971zm172.68-21.004c-.152.359-.484.785-1.18.785H202.527v-80h40.176c.559.004 56.766 1.197 129.602 77.77.523.553.383 1.143.254 1.445zm-178.032.786H192v-80h2.527zm-10.527 0h-35.629c-11.449 0-21.734-6.289-26.844-16.412-6.895-13.65-15.762-34.084-18.875-53.908a8.408 8.408 0 0 1 1.91-6.781c1.602-1.869 3.836-2.898 6.297-2.898H184zM8 365.373v-22.105a4.848 4.848 0 0 1 4.844-4.842h37.797c-7.724 8.5-12.613 19.577-13.225 31.791H12.844A4.85 4.85 0 0 1 8 365.373zM88.492 416c-23.824 0-43.207-19.383-43.207-43.207 0-23.826 19.383-43.209 43.207-43.209s43.207 19.383 43.207 43.209c0 23.824-19.383 43.207-43.207 43.207zm325.809 0c-23.824 0-43.207-19.383-43.207-43.207 0-23.826 19.383-43.209 43.207-43.209s43.207 19.383 43.207 43.209c0 23.824-19.383 43.207-43.207 43.207zM504 365.373a4.85 4.85 0 0 1-4.844 4.844h-33.779c-.612-12.214-5.501-23.291-13.225-31.791h47.004a4.848 4.848 0 0 1 4.844 4.842z" fill="#271035" opacity="1" data-original="#271035" class=""></path><path d="M223.129 259.975h21.742c6.137 0 11.129-4.994 11.129-11.131v-4.869c0-2.209-1.789-4-4-4h-36c-2.211 0-4 1.791-4 4v4.869c0 6.136 4.992 11.131 11.129 11.131zm-3.129-12h28v.869a3.132 3.132 0 0 1-3.129 3.131h-21.742a3.132 3.132 0 0 1-3.129-3.131zM488 267.975h-12c-2.211 0-4 1.791-4 4s1.789 4 4 4h12c2.211 0 4-1.791 4-4s-1.789-4-4-4z" fill="#271035" opacity="1" data-original="#271035" class=""></path></g></g></svg>