<svg xmlns="http://www.w3.org/2000/svg" version="1.1" xmlns:xlink="http://www.w3.org/1999/xlink" width="512" height="512" x="0" y="0" viewBox="0 0 682.667 682.667" style="enable-background:new 0 0 512 512" xml:space="preserve" class=""><g><defs><clipPath id="a" clipPathUnits="userSpaceOnUse"><path d="M0 512h512V0H0Z" fill="#1c1c1c" opacity="1" data-original="#000000" class=""></path></clipPath></defs><g clip-path="url(#a)" transform="matrix(1.33333 0 0 -1.33333 0 682.667)"><path d="M0 0c0-24.233-19.645-43.878-43.877-43.878-24.233 0-43.877 19.645-43.877 43.878 0 24.232 19.644 43.877 43.877 43.877C-19.645 43.877 0 24.232 0 0" style="fill-opacity:1;fill-rule:nonzero;stroke:none" transform="translate(139.329 172.742)" fill="#4b4b4b" data-original="#5c90ae" class="" opacity="1"></path><path d="M0 0c0-24.233-19.645-43.878-43.878-43.878-24.232 0-43.877 19.645-43.877 43.878 0 24.232 19.645 43.877 43.877 43.877C-19.645 43.877 0 24.232 0 0" style="fill-opacity:1;fill-rule:nonzero;stroke:none" transform="translate(432.703 172.742)" fill="#4b4b4b" data-original="#5c90ae" class="" opacity="1"></path><path d="M0 0c0-24.233-19.645-43.878-43.877-43.878-24.233 0-43.877 19.645-43.877 43.878 0 24.232 19.644 43.877 43.877 43.877C-19.645 43.877 0 24.232 0 0Z" style="stroke-width:20;stroke-linecap:round;stroke-linejoin:round;stroke-miterlimit:10;stroke-dasharray:none;stroke-opacity:1" transform="translate(139.329 172.742)" fill="none" stroke="#1c1c1c" stroke-width="20" stroke-linecap="round" stroke-linejoin="round" stroke-miterlimit="10" stroke-dasharray="none" stroke-opacity="" data-original="#000000" class="" opacity="1"></path><path d="M0 0c0-24.233-19.645-43.878-43.878-43.878-24.232 0-43.877 19.645-43.877 43.878 0 24.232 19.645 43.877 43.877 43.877C-19.645 43.877 0 24.232 0 0Z" style="stroke-width:20;stroke-linecap:round;stroke-linejoin:round;stroke-miterlimit:10;stroke-dasharray:none;stroke-opacity:1" transform="translate(432.703 172.742)" fill="none" stroke="#1c1c1c" stroke-width="20" stroke-linecap="round" stroke-linejoin="round" stroke-miterlimit="10" stroke-dasharray="none" stroke-opacity="" data-original="#000000" class="" opacity="1"></path><path d="M0 0h57.135c0 24.23 19.639 43.87 43.88 43.87 24.23 0 43.87-19.64 43.87-43.87h56.349l12.951 22.65v18.951c0 4.639-.55 9.25-1.621 13.729-3.729 16.16-14.96 30.82-28.11 40.46a77.319 77.319 0 0 1-27.859 12.92l-61.09 14.65-54.11 55.15a106.463 106.463 0 0 1-75.97 31.881h-194.691l11.898-14.785c4.2-5.217 3.521-12.821-1.536-17.212l-51.362-44.604V76.601l-7.549-14.231V22.65L-262.706 0h26.46c0 24.23 19.65 43.87 43.881 43.87 24.23 0 43.88-19.64 43.88-43.87h60.495z" style="fill-opacity:1;fill-rule:nonzero;stroke:none" transform="translate(287.815 172.745)" fill="#556b2f" data-original="#eaf0f0" class="" opacity="1"></path><path d="M0 0h57.135c0 24.23 19.639 43.87 43.88 43.87 24.23 0 43.87-19.64 43.87-43.87h56.349l12.951 22.65v18.951c0 4.639-.55 9.25-1.621 13.729-3.729 16.16-14.96 30.82-28.11 40.46a77.319 77.319 0 0 1-27.859 12.92l-61.09 14.65-54.11 55.15a106.463 106.463 0 0 1-75.97 31.881h-194.691l11.898-14.785c4.2-5.217 3.521-12.821-1.536-17.212l-51.362-44.604V76.601l-7.549-14.231V22.65L-262.706 0h26.46c0 24.23 19.65 43.87 43.881 43.87 24.23 0 43.88-19.64 43.88-43.87h60.495" style="stroke-width:20;stroke-linecap:round;stroke-linejoin:round;stroke-miterlimit:10;stroke-dasharray:none;stroke-opacity:1" transform="translate(287.815 172.745)" fill="none" stroke="#1c1c1c" stroke-width="20" stroke-linecap="round" stroke-linejoin="round" stroke-miterlimit="10" stroke-dasharray="none" stroke-opacity="" data-original="#000000" class="" opacity="1"></path><path d="M0 0h-41.2a14.39 14.39 0 0 0-10.2 4.23 14.33 14.33 0 0 0-4.23 10.201c0 4.91 2.489 9.49 6.619 12.139l21 13.5C-14.825 30.4-3.937 16.083 0 0" style="fill-opacity:1;fill-rule:nonzero;stroke:none" transform="translate(500.28 228.465)" fill="#e0ffff" data-original="#ffea54" class="" opacity="1"></path><path d="M0 0h-41.2a14.39 14.39 0 0 0-10.2 4.23 14.33 14.33 0 0 0-4.23 10.201c0 4.91 2.489 9.49 6.619 12.139l21 13.5C-14.825 30.4-3.937 16.083 0 0Z" style="stroke-width:20;stroke-linecap:round;stroke-linejoin:round;stroke-miterlimit:10;stroke-dasharray:none;stroke-opacity:1" transform="translate(500.28 228.465)" fill="none" stroke="#1c1c1c" stroke-width="20" stroke-linecap="round" stroke-linejoin="round" stroke-miterlimit="10" stroke-dasharray="none" stroke-opacity="" data-original="#000000" class="" opacity="1"></path><path d="M0 0c-40.628 3.215-202.201 16.391-241.393 19.588-3.292.268-4.689 4.322-2.266 6.567l35.59 32.972a11.865 11.865 0 0 0 8.066 3.162h118.934c22.282 0 43.484-9.6 58.184-26.345L3.148 6.288C5.396 3.728 3.396-.27 0 0" style="fill-opacity:1;fill-rule:nonzero;stroke:none" transform="translate(326.656 284.256)" fill="#6b6b6b" data-original="#bdd3dd" class="" opacity="1"></path><path d="M0 0c-40.628 3.215-202.201 16.391-241.393 19.588-3.292.268-4.689 4.322-2.266 6.567l35.59 32.972a11.865 11.865 0 0 0 8.066 3.162h118.934c22.282 0 43.484-9.6 58.184-26.345L3.148 6.288C5.396 3.728 3.396-.27 0 0Z" style="stroke-width:20;stroke-linecap:round;stroke-linejoin:round;stroke-miterlimit:10;stroke-dasharray:none;stroke-opacity:1" transform="translate(326.656 284.256)" fill="none" stroke="#1c1c1c" stroke-width="20" stroke-linecap="round" stroke-linejoin="round" stroke-miterlimit="10" stroke-dasharray="none" stroke-opacity="" data-original="#000000" class="" opacity="1"></path><path d="M0 0v-53.376" style="stroke-width:20;stroke-linecap:round;stroke-linejoin:round;stroke-miterlimit:10;stroke-dasharray:none;stroke-opacity:1" transform="translate(216.333 346.545)" fill="none" stroke="#1c1c1c" stroke-width="20" stroke-linecap="round" stroke-linejoin="round" stroke-miterlimit="10" stroke-dasharray="none" stroke-opacity="" data-original="#000000" class="" opacity="1"></path><path d="M0 0h22.365" style="stroke-width:20;stroke-linecap:round;stroke-linejoin:round;stroke-miterlimit:10;stroke-dasharray:none;stroke-opacity:1" transform="translate(216.333 246.5)" fill="none" stroke="#1c1c1c" stroke-width="20" stroke-linecap="round" stroke-linejoin="round" stroke-miterlimit="10" stroke-dasharray="none" stroke-opacity="" data-original="#000000" class="" opacity="1"></path><path d="M0 0h22.366" style="stroke-width:20;stroke-linecap:round;stroke-linejoin:round;stroke-miterlimit:10;stroke-dasharray:none;stroke-opacity:1" transform="translate(81.957 260.4)" fill="none" stroke="#1c1c1c" stroke-width="20" stroke-linecap="round" stroke-linejoin="round" stroke-miterlimit="10" stroke-dasharray="none" stroke-opacity="" data-original="#000000" class="" opacity="1"></path><path d="M0 0v0" style="stroke-width:20;stroke-linecap:round;stroke-linejoin:round;stroke-miterlimit:10;stroke-dasharray:none;stroke-opacity:1" transform="translate(244.814 172.742)" fill="none" stroke="#1c1c1c" stroke-width="20" stroke-linecap="round" stroke-linejoin="round" stroke-miterlimit="10" stroke-dasharray="none" stroke-opacity="" data-original="#000000" class="" opacity="1"></path></g></g></svg>